<?xml version="1.0" encoding="UTF-8" standalone="no"?>
<!DOCTYPE svg PUBLIC "-//W3C//DTD SVG 1.1//EN" "http://www.w3.org/Graphics/SVG/1.1/DTD/svg11.dtd">
<svg width="100%" height="100%" viewBox="0 0 109 25" version="1.1" xmlns="http://www.w3.org/2000/svg" xmlns:xlink="http://www.w3.org/1999/xlink" xml:space="preserve" xmlns:serif="http://www.serif.com/" style="fill-rule:evenodd;clip-rule:evenodd;stroke-linejoin:round;stroke-miterlimit:1.41421;">
    <g id="logo" transform="matrix(1,0,0,1,-47,-45)">
        <path d="M156,68.414L156,46.579C155.996,45.493 155.479,45.005 154.327,45L145.461,45C144.31,45.005 143.793,45.493 143.788,46.581L143.788,68.415C143.793,69.501 144.31,69.988 145.462,69.992L154.328,69.992C155.479,69.988 155.996,69.501 156,68.414ZM152.894,67.214C152.894,67.415 152.732,67.578 152.533,67.578L147.258,67.578C147.058,67.578 146.896,67.415 146.896,67.214L146.896,47.791C146.896,47.59 147.058,47.427 147.258,47.427L152.533,47.427C152.732,47.427 152.894,47.59 152.894,47.791L152.894,67.214ZM140.464,70L136.407,58.654C136.368,58.543 136.384,58.418 136.452,58.322C136.519,58.225 136.63,58.167 136.747,58.167C138.27,58.167 138.879,58.067 139.122,57.983C139.704,57.769 139.978,57.325 139.978,56.588L139.978,46.592C139.978,45.505 139.461,45.018 138.303,45.013L128.201,45.013L128.201,70L131.31,70L131.31,47.791C131.31,47.59 131.472,47.427 131.671,47.427L136.508,47.427C136.707,47.427 136.869,47.59 136.869,47.791L136.869,56.06C136.869,56.261 136.707,56.423 136.508,56.423L133.107,56.423L133.107,58.207L137.236,70L140.464,70ZM125.532,57.265L125.532,46.592C125.532,45.505 125.015,45.018 123.857,45.013L113.757,45.013L113.757,70L116.864,70L116.864,47.791C116.864,47.59 117.026,47.427 117.225,47.427L122.064,47.427C122.263,47.427 122.425,47.59 122.425,47.791L122.425,56.06C122.425,56.261 122.263,56.423 122.064,56.423L118.662,56.423L118.662,58.852L122.302,58.852C123.88,58.852 124.468,58.73 124.678,58.658C125.258,58.446 125.532,58.002 125.532,57.265ZM106.941,70L109.685,70L109.685,45.013L106.676,45.013L106.677,60.839C106.672,60.841 106.671,60.846 106.666,60.847C106.485,60.898 106.296,60.808 106.226,60.631L100.145,45.013L97.399,45.013L97.398,70L100.407,70L100.4,53.811C100.408,53.808 100.411,53.798 100.419,53.796C100.6,53.739 100.791,53.836 100.859,54.014L106.941,70ZM90.218,70L93.326,70L93.326,45.013L90.218,45.013L90.218,70ZM82.541,47.427L87.717,47.427L87.717,45.013L78.98,45.013L78.98,70L82.18,70L82.18,59.216C82.18,59.015 82.341,58.852 82.541,58.852L87.49,58.852L87.49,56.422L82.541,56.422C82.341,56.422 82.18,56.259 82.18,56.059L82.18,47.791C82.18,47.59 82.341,47.427 82.541,47.427ZM74.932,68.415L74.932,46.579C74.928,45.493 74.411,45.005 73.258,45L64.393,45C63.241,45.005 62.724,45.493 62.72,46.581L62.72,68.415C62.724,69.501 63.241,69.988 64.395,69.992L73.259,69.992C74.411,69.988 74.927,69.502 74.932,68.415ZM71.825,67.221C71.825,67.421 71.663,67.585 71.464,67.585L66.19,67.585C65.991,67.585 65.829,67.421 65.829,67.221L65.829,47.791C65.829,47.59 65.991,47.427 66.19,47.427L71.464,47.427C71.663,47.427 71.825,47.59 71.825,47.791L71.825,67.221ZM58.911,68.422L58.911,62.409L55.802,62.409L55.802,67.221C55.802,67.421 55.64,67.585 55.441,67.585L50.469,67.585C50.27,67.585 50.108,67.421 50.108,67.221L50.108,47.791C50.108,47.59 50.27,47.427 50.469,47.427L55.441,47.427C55.64,47.427 55.802,47.59 55.802,47.791L55.802,52.305L58.911,52.305L58.911,46.592C58.905,45.505 58.388,45.018 57.235,45.013L48.673,45.013C47.521,45.018 47.005,45.505 47,46.594L47,68.422C47.005,69.508 47.521,69.996 48.675,70L57.236,70C58.388,69.996 58.904,69.508 58.911,68.422Z" style="fill:white;"/>
    </g>
</svg>
