<?xml version="1.0" encoding="UTF-8" standalone="no"?>
<!DOCTYPE svg PUBLIC "-//W3C//DTD SVG 1.1//EN" "http://www.w3.org/Graphics/SVG/1.1/DTD/svg11.dtd">
<svg width="100%" height="100%" viewBox="0 0 600 200" version="1.1" xmlns="http://www.w3.org/2000/svg" xmlns:xlink="http://www.w3.org/1999/xlink" xml:space="preserve" xmlns:serif="http://www.serif.com/" style="fill-rule:evenodd;clip-rule:evenodd;stroke-linejoin:round;stroke-miterlimit:1.41421;">
    <g transform="matrix(1,0,0,1,0,-200)">
        <path d="M135.1,271.36C134.723,271.372 134.371,271.171 134.19,270.84L118.28,243.26C118.083,242.936 117.729,242.738 117.35,242.74L52.45,242.74C52.073,242.728 51.721,242.929 51.54,243.26L35,271.88L19.08,299.47C18.897,299.796 18.897,300.194 19.08,300.52L35,328.1L51.53,356.75C51.711,357.081 52.063,357.282 52.44,357.27L117.35,357.27C117.729,357.272 118.083,357.074 118.28,356.75L134.2,329.17C134.381,328.839 134.733,328.638 135.11,328.65L154.92,328.65C155.573,328.65 156.11,328.113 156.11,327.46L156.11,272.56C156.11,271.907 155.573,271.37 154.92,271.37L135.1,271.37L135.1,271.36Z" style="fill:rgb(77,77,77);fill-rule:nonzero;"/>
    </g>
    <g transform="matrix(1,0,0,1,0,-200)">
        <clipPath id="_clip1">
            <path d="M580.49,328.6L567,328.6C566.819,328.599 566.649,328.514 566.54,328.37L565.49,326.94L562.61,323.07L554.75,312.49L550.36,306.57C550.254,306.443 550.096,306.369 549.93,306.369C549.764,306.369 549.606,306.443 549.5,306.57L544.9,311.69L544.38,312.28C544.289,312.382 544.239,312.514 544.24,312.65L544.24,328C544.235,328.305 543.985,328.555 543.68,328.56L532,328.56C531.693,328.56 531.44,328.307 531.44,328L531.44,272C531.44,271.693 531.693,271.44 532,271.44L543.63,271.44C543.937,271.44 544.19,271.693 544.19,272L544.19,293.47C544.189,293.482 544.189,293.493 544.189,293.505C544.189,293.812 544.442,294.065 544.749,294.065C544.921,294.065 545.084,293.986 545.19,293.85L551.61,286.85L561.16,276.46L565.64,271.59C565.746,271.476 565.894,271.41 566.05,271.41L580.33,271.41C580.638,271.41 580.89,271.663 580.89,271.97C580.89,271.977 580.89,271.983 580.89,271.99C580.88,272.118 580.831,272.24 580.75,272.34L574.32,279.49L563.62,291.39L559.16,296.39C558.998,296.591 558.998,296.879 559.16,297.08L564.72,304.85L569.78,311.98L570.4,312.85L574.23,318.21L578.23,323.83L581.02,327.73C581.077,327.821 581.107,327.925 581.107,328.032C581.107,328.345 580.849,328.602 580.537,328.602C580.521,328.602 580.505,328.601 580.49,328.6ZM527,327.81C527.029,327.88 527.044,327.955 527.044,328.03C527.044,328.337 526.797,328.592 526.49,328.6L514.11,328.6C513.887,328.601 513.685,328.466 513.6,328.26L513.35,327.71L508.57,316.6C508.485,316.394 508.283,316.259 508.06,316.26L484.84,316.26C484.615,316.261 484.411,316.394 484.32,316.6L483.61,318.25L479.3,328.25C479.208,328.443 479.014,328.568 478.8,328.57L466.43,328.57C466.123,328.57 465.871,328.317 465.871,328.01C465.871,327.931 465.887,327.852 465.92,327.78L466.78,325.78L472.61,312.29L472.82,311.81L473.07,311.25L473.18,310.97L475.12,306.47L490.12,271.8C490.209,271.597 490.409,271.464 490.63,271.46L502.24,271.46C502.463,271.459 502.665,271.594 502.75,271.8L510.54,289.8L514.39,298.71L518.7,308.71L526.85,327.58L527,327.81ZM503.29,304.26L502.47,302.35L499.73,295.95L497,289.63C496.9,289.448 496.708,289.334 496.5,289.334C496.292,289.334 496.1,289.448 496,289.63L491.14,300.84L489.66,304.26C489.63,304.33 489.615,304.404 489.615,304.48C489.615,304.785 489.865,305.037 490.17,305.04L502.78,305.04C503.074,305.022 503.305,304.775 503.305,304.481C503.305,304.405 503.29,304.33 503.26,304.26L503.29,304.26ZM466.65,310.7C466.319,311.571 465.938,312.422 465.51,313.25C464.083,316.006 462.219,318.511 459.99,320.67C459.008,321.633 457.963,322.528 456.86,323.35C452.179,326.837 446.552,328.831 440.72,329.07C440.04,329.07 439.34,329.14 438.64,329.14C432.722,329.256 426.901,327.609 421.92,324.41C420.261,323.318 418.714,322.065 417.3,320.67C416.73,320.11 416.18,319.54 415.67,318.95C410.992,313.617 408.492,306.712 408.67,299.62C408.664,297.946 408.788,296.275 409.04,294.62L408.78,294.24L409.2,293.61C410.254,287.854 413.104,282.577 417.34,278.54C418.666,277.237 420.109,276.059 421.65,275.02C424.739,272.929 428.213,271.474 431.87,270.74C434.107,270.281 436.386,270.056 438.67,270.07C446.638,269.877 454.351,272.937 460.02,278.54C464.948,283.263 467.983,289.628 468.55,296.43C468.65,297.43 468.69,298.51 468.69,299.59C468.712,303.39 468.013,307.16 466.63,310.7L466.65,310.7ZM455.65,299.7C455.747,295.151 454.182,290.719 451.25,287.24C451.094,287.035 450.927,286.838 450.75,286.65C447.722,283.166 443.305,281.192 438.69,281.26C437.45,281.257 436.212,281.388 435,281.65C431.752,282.389 428.821,284.14 426.63,286.65C423.473,290.085 421.723,294.585 421.73,299.25C421.73,299.4 421.73,299.54 421.73,299.7C421.619,304.504 423.381,309.168 426.64,312.7C427.102,313.211 427.597,313.692 428.12,314.14C429.097,315.008 430.179,315.75 431.34,316.35C436.058,318.661 441.6,318.616 446.28,316.23C447.76,315.442 449.109,314.43 450.28,313.23C450.45,313.06 450.62,312.89 450.78,312.71C451.869,311.529 452.8,310.211 453.55,308.79C454.974,305.972 455.678,302.846 455.6,299.69L455.65,299.7ZM407.95,317.23L384.65,317.23C384.647,317.23 384.643,317.23 384.64,317.23C384.338,317.23 384.09,316.982 384.09,316.68C384.09,316.68 384.09,316.68 384.09,316.68L384.09,272C384.09,271.786 383.965,271.59 383.77,271.5C383.696,271.46 383.614,271.439 383.53,271.44L371.9,271.44C371.593,271.44 371.34,271.693 371.34,272L371.34,328C371.34,328.307 371.593,328.56 371.9,328.56L407.9,328.56C408.207,328.56 408.46,328.307 408.46,328L408.46,317.78C408.46,317.473 408.207,317.22 407.9,317.22L407.95,317.23ZM344.71,270.23C343.79,270.15 342.86,270.12 341.91,270.12C333.95,269.949 326.252,273.022 320.6,278.63C319.564,279.644 318.602,280.73 317.72,281.88C313.789,287.043 311.733,293.393 311.89,299.88C311.847,303.596 312.477,307.289 313.75,310.78C314.482,312.754 315.445,314.633 316.62,316.38C317.721,318.018 318.992,319.537 320.41,320.91C322.123,322.587 324.037,324.045 326.11,325.25C326.62,325.54 327.11,325.83 327.68,326.1C328.06,326.293 328.45,326.473 328.85,326.64C333.044,328.42 337.564,329.303 342.12,329.23C343.539,329.232 344.956,329.132 346.36,328.93C347.24,328.81 348.12,328.64 348.98,328.43C353.98,327.179 358.568,324.645 362.29,321.08C363.1,320.34 363.9,319.53 364.68,318.68C364.885,318.462 364.885,318.118 364.68,317.9L357.3,310.31C357.174,310.177 356.99,310.117 356.81,310.15C356.681,310.179 356.565,310.249 356.48,310.35C352.841,314.883 347.292,317.472 341.48,317.35C339.509,317.361 337.552,317.023 335.7,316.35C333.471,315.516 331.453,314.202 329.79,312.5C328.109,310.83 326.83,308.798 326.05,306.56C325.296,304.356 324.927,302.039 324.96,299.71C324.96,294.757 326.44,290.757 329.4,287.71C329.62,287.49 329.84,287.27 330.07,287.05C333.404,283.942 337.823,282.255 342.38,282.35C348.075,282.297 353.486,284.884 357.02,289.35C357.124,289.474 357.278,289.545 357.44,289.545C357.602,289.545 357.756,289.474 357.86,289.35L365.04,281.21C365.228,280.993 365.228,280.667 365.04,280.45C359.856,274.5 352.529,270.829 344.66,270.24L344.71,270.23ZM312.45,276.05L314.62,272.27C314.669,272.185 314.695,272.088 314.695,271.99C314.695,271.685 314.445,271.433 314.14,271.43L301.55,271.43C301.352,271.434 301.17,271.54 301.07,271.71L289.71,291.26L289.1,291.71L288.64,292.06C288.541,292.011 288.457,291.935 288.4,291.84L288.21,291.52L287.92,291.04L276.7,271.71C276.6,271.54 276.418,271.434 276.22,271.43L263.68,271.43C263.375,271.433 263.125,271.685 263.125,271.99C263.125,272.088 263.151,272.185 263.2,272.27L268.64,281.77L278.47,299L282.47,305.93C282.52,306.015 282.548,306.111 282.55,306.21L282.55,328C282.55,328.307 282.803,328.56 283.11,328.56L294.7,328.56C295.007,328.56 295.26,328.307 295.26,328L295.26,306.17C295.262,306.071 295.29,305.975 295.34,305.89L298.14,300.99L308.78,282.38L310.96,278.59L312.4,276.06L312.45,276.05ZM258.76,317.31L230.48,317.31C230.173,317.31 229.92,317.057 229.92,316.75L229.92,306C229.925,305.695 230.175,305.445 230.48,305.44L255,305.44C255.307,305.44 255.56,305.187 255.56,304.88L255.56,295.13C255.56,294.823 255.307,294.57 255,294.57L230.48,294.57C230.173,294.57 229.92,294.317 229.92,294.01L229.92,283.36C229.92,283.053 230.173,282.8 230.48,282.8L257.82,282.8C258.127,282.8 258.38,282.547 258.38,282.24L258.38,272C258.38,271.693 258.127,271.44 257.82,271.44L217.72,271.44C217.413,271.44 217.16,271.693 217.16,272L217.16,328C217.16,328.307 217.413,328.56 217.72,328.56L258.72,328.56C259.027,328.56 259.28,328.307 259.28,328L259.28,317.87C259.28,317.563 259.027,317.31 258.72,317.31L258.76,317.31ZM210.59,327C209.137,325 207.37,322.523 205.29,319.57C203.663,317.297 201.853,314.757 199.86,311.95L199.66,311.66C194.7,304.687 191.223,299.813 189.23,297.04C189.072,296.838 189.072,296.552 189.23,296.35L194.32,290.7L198.51,286.04L202.51,281.56L210.79,272.36C210.88,272.258 210.93,272.126 210.93,271.99C210.93,271.683 210.677,271.43 210.37,271.43L196.18,271.43C196.021,271.429 195.869,271.494 195.76,271.61L186.91,281.22L175.31,293.84C175.204,293.976 175.041,294.055 174.869,294.055C174.562,294.055 174.309,293.802 174.309,293.495C174.309,293.483 174.309,293.472 174.31,293.46L174.31,272C174.31,272 174.31,272 174.31,272C174.31,271.698 174.062,271.45 173.76,271.45C173.757,271.45 173.753,271.45 173.75,271.45L162.15,271.45C161.843,271.45 161.59,271.703 161.59,272.01L161.59,328.01C161.59,328.317 161.843,328.57 162.15,328.57L173.78,328.57C174.087,328.57 174.34,328.317 174.34,328.01L174.34,312.61C174.339,312.474 174.389,312.342 174.48,312.24L176.9,309.53L179.6,306.53C179.706,306.403 179.864,306.329 180.03,306.329C180.196,306.329 180.354,306.403 180.46,306.53L188.53,317.38L194.33,325.18L196.66,328.32C196.764,328.465 196.932,328.551 197.11,328.55L210.62,328.55C210.928,328.544 211.178,328.288 211.178,327.98C211.178,327.866 211.144,327.754 211.08,327.66L210.59,327ZM154.93,271.35L35.93,271.35C35.56,271.353 35.215,271.545 35.02,271.86C34.825,272.175 35.02,271.86 35.02,271.86L34.43,272.86L27.15,285.48L19.15,299.42C18.952,299.741 18.952,300.149 19.15,300.47L20.9,303.47L35,328.11C35.189,328.438 35.541,328.641 35.92,328.64L154.92,328.64C155.564,328.635 156.09,328.104 156.09,327.46L156.09,272.56C156.09,271.918 155.571,271.386 154.93,271.37L154.93,271.35Z"/>
        </clipPath>
        <g clip-path="url(#_clip1)">
            <rect x="17.66" y="262.56" width="566.81" height="76.56" style="fill:url(#_Linear2);"/>
        </g>
    </g>
    <g transform="matrix(1,0,0,1,0,-200)">
        <path d="M38.62,297.11L20.84,303.56L19.09,300.56C18.892,300.239 18.892,299.831 19.09,299.51L27.09,285.57L38.62,297.11Z" style="fill:rgb(225,225,225);fill-rule:nonzero;"/>
    </g>
    <g transform="matrix(1,0,0,1,0,-200)">
        <path d="M580.49,328.6L573.15,328.6L566.45,324.4L578.16,323.81L580.95,327.71C581.014,327.804 581.048,327.916 581.048,328.03C581.048,328.338 580.798,328.594 580.49,328.6Z" style="fill:rgb(88,88,88);fill-rule:nonzero;"/>
    </g>
    <g transform="matrix(1,0,0,1,0,-200)">
        <path d="M573.15,328.6L567,328.6C566.819,328.599 566.649,328.514 566.54,328.37L565.49,326.94L566.49,324.39L573.15,328.6Z" style="fill:rgb(88,88,88);fill-rule:nonzero;"/>
    </g>
    <g transform="matrix(1,0,0,1,0,-200)">
        <path d="M580.89,272C580.88,272.128 580.831,272.25 580.75,272.35L574.32,279.5L573.92,275.5L580.89,272Z" style="fill:rgb(105,105,105);fill-rule:nonzero;"/>
    </g>
    <g transform="matrix(1,0,0,1,0,-200)">
        <path d="M578.16,323.81L566.45,324.4L574.17,318.19L578.16,323.81Z" style="fill:rgb(94,94,94);fill-rule:nonzero;"/>
    </g>
    <g transform="matrix(1,0,0,1,0,-200)">
        <path d="M580.89,272L573.89,275.49L575.08,271.42L580.31,271.42C580.317,271.42 580.324,271.42 580.33,271.42C580.638,271.42 580.89,271.672 580.89,271.98C580.89,271.986 580.89,271.993 580.89,272Z" style="fill:rgb(109,109,109);fill-rule:nonzero;"/>
    </g>
    <g transform="matrix(1,0,0,1,0,-200)">
        <path d="M574.17,318.19L566.45,324.4L570.34,312.83L574.17,318.19Z" style="fill:rgb(99,99,99);fill-rule:nonzero;"/>
    </g>
    <g transform="matrix(1,0,0,1,0,-200)">
        <path d="M575.1,271.43L573.91,275.5L567.14,271.43L575.1,271.43Z" style="fill:rgb(115,115,115);fill-rule:nonzero;"/>
    </g>
    <g transform="matrix(1,0,0,1,0,-200)">
        <path d="M544.21,272L544.21,277.79L531.46,278.79L531.46,272C531.46,271.693 531.713,271.44 532.02,271.44L543.65,271.44C543.957,271.44 544.21,271.693 544.21,272Z" style="fill:rgb(117,117,117);fill-rule:nonzero;"/>
    </g>
    <g transform="matrix(1,0,0,1,0,-200)">
        <path d="M573.91,275.5L561.16,276.5L565.64,271.63C565.746,271.516 565.894,271.45 566.05,271.45L567.14,271.45L573.91,275.5Z" style="fill:rgb(117,117,117);fill-rule:nonzero;"/>
    </g>
    <g transform="matrix(1,0,0,1,0,-200)">
        <path d="M570.34,312.83L566.45,324.4L562.59,323.08L554.73,312.5L564.66,304.83L569.72,311.96L570.34,312.83Z" style="fill:rgb(100,100,100);fill-rule:nonzero;"/>
    </g>
    <g transform="matrix(1,0,0,1,0,-200)">
        <path d="M544.22,277.78L544.22,284.06L531.46,279.23L531.46,278.77L544.22,277.78Z" style="fill:rgb(109,109,109);fill-rule:nonzero;"/>
    </g>
    <g transform="matrix(1,0,0,1,0,-200)">
        <path d="M574.31,279.51L563.61,291.41L551.61,286.86L561.16,276.48L573.91,275.5L574.31,279.51Z" style="fill:rgb(109,109,109);fill-rule:nonzero;"/>
    </g>
    <g transform="matrix(1,0,0,1,0,-200)">
        <path d="M564.67,304.83L554.74,312.5L550.35,306.58C550.244,306.453 550.086,306.379 549.92,306.379C549.754,306.379 549.596,306.453 549.49,306.58L544.89,311.7L531.47,281.24L531.47,279.24L544.22,284.07L544.22,293.47C544.219,293.482 544.219,293.493 544.219,293.505C544.219,293.812 544.472,294.065 544.779,294.065C544.951,294.065 545.114,293.986 545.22,293.85L551.64,286.85L563.64,291.39L559.18,296.39C559.018,296.591 559.018,296.879 559.18,297.08L564.67,304.83Z" style="fill:rgb(108,108,108);fill-rule:nonzero;"/>
    </g>
    <g transform="matrix(1,0,0,1,0,-200)">
        <path d="M566.45,324.39L565.48,326.94L562.6,323.07L566.45,324.39Z" style="fill:rgb(96,96,96);fill-rule:nonzero;"/>
    </g>
    <g transform="matrix(1,0,0,1,0,-200)">
        <path d="M544.88,311.65L544.36,312.24C544.269,312.342 544.219,312.474 544.22,312.61L544.22,315L531.47,304.18L531.47,281.18L544.88,311.65Z" style="fill:rgb(112,112,112);fill-rule:nonzero;"/>
    </g>
    <g transform="matrix(1,0,0,1,0,-200)">
        <path d="M527,327.81C527.029,327.88 527.044,327.955 527.044,328.03C527.044,328.337 526.797,328.592 526.49,328.6L524.6,328.6L526.86,327.6L527,327.81Z" style="fill:rgb(99,99,99);fill-rule:nonzero;"/>
    </g>
    <g transform="matrix(1,0,0,1,0,-200)">
        <path d="M544.21,319.55L544.21,328C544.205,328.305 543.955,328.555 543.65,328.56L532,328.56C531.693,328.56 531.44,328.307 531.44,328L531.44,325.4L544.21,319.55Z" style="fill:rgb(99,99,99);fill-rule:nonzero;"/>
    </g>
    <g transform="matrix(1,0,0,1,0,-200)">
        <path d="M526.86,327.55L524.6,328.55L514.11,328.55C513.887,328.551 513.685,328.416 513.6,328.21L513.35,327.66L518.71,308.66L526.86,327.55Z" style="fill:rgb(109,109,109);fill-rule:nonzero;"/>
    </g>
    <g transform="matrix(1,0,0,1,0,-200)">
        <path d="M544.22,315.03L544.22,319.55L531.46,325.43L531.46,304.21L544.22,315.03Z" style="fill:rgb(109,109,109);fill-rule:nonzero;"/>
    </g>
    <g transform="matrix(1,0,0,1,0,-200)">
        <path d="M518.71,308.68L513.35,327.68L508.57,316.57C508.485,316.364 508.283,316.229 508.06,316.23L484.83,316.23C484.605,316.231 484.401,316.364 484.31,316.57L483.6,318.22L472.8,311.83L473.05,311.27L493.6,305L502.75,305C503.055,304.997 503.305,304.745 503.305,304.44C503.305,304.364 503.29,304.29 503.26,304.22L502.44,302.31L514.44,298.67L518.71,308.68Z" style="fill:rgb(118,118,118);fill-rule:nonzero;"/>
    </g>
    <g transform="matrix(1,0,0,1,0,-200)">
        <path d="M493.6,305L473,311.29L473.11,311.01L491.05,300.83L489.57,304.25C489.54,304.32 489.525,304.394 489.525,304.47C489.525,304.775 489.775,305.027 490.08,305.03L493.54,305.03L493.6,305Z" style="fill:rgb(121,121,121);fill-rule:nonzero;"/>
    </g>
    <g transform="matrix(1,0,0,1,0,-200)">
        <path d="M514.4,298.71L502.44,302.35L499.71,295.95L510.55,289.8L514.4,298.71Z" style="fill:rgb(121,121,121);fill-rule:nonzero;"/>
    </g>
    <g transform="matrix(1,0,0,1,0,-200)">
        <path d="M483.6,318.24L479.29,328.24L472.6,312.3L472.81,311.82L483.6,318.24Z" style="fill:rgb(117,117,117);fill-rule:nonzero;"/>
    </g>
    <g transform="matrix(1,0,0,1,0,-200)">
        <path d="M510.55,289.8L499.71,295.95L497,289.63C496.9,289.448 496.708,289.334 496.5,289.334C496.292,289.334 496.1,289.448 496,289.63L491.14,300.84L473.16,311L475.1,306.5L494.94,271.5L502.2,271.5C502.423,271.499 502.625,271.634 502.71,271.84L510.55,289.8Z" style="fill:rgb(127,127,127);fill-rule:nonzero;"/>
    </g>
    <g transform="matrix(1,0,0,1,0,-200)">
        <path d="M466.21,287.57C467.441,290.397 468.201,293.407 468.46,296.48L466.21,287.57Z" style="fill:rgb(134,134,134);fill-rule:nonzero;"/>
    </g>
    <g transform="matrix(1,0,0,1,0,-200)">
        <path d="M495,271.43L475.16,306.43L490.16,271.76C490.249,271.557 490.449,271.424 490.67,271.42L495,271.42L495,271.43Z" style="fill:rgb(134,134,134);fill-rule:nonzero;"/>
    </g>
    <g transform="matrix(1,0,0,1,0,-200)">
        <path d="M468.6,299.65C468.633,303.426 467.955,307.175 466.6,310.7L453.44,308.77C454.893,305.963 455.629,302.84 455.58,299.68C455.677,295.131 454.112,290.699 451.18,287.22L456.32,275.56C457.594,276.464 458.794,277.467 459.91,278.56C462.57,281.12 464.7,284.178 466.18,287.56L468.43,296.47C468.55,297.52 468.6,298.57 468.6,299.65Z" style="fill:rgb(138,138,138);fill-rule:nonzero;"/>
    </g>
    <g transform="matrix(1,0,0,1,0,-200)">
        <path d="M454,316.16L465.5,313.25C464.073,316.006 462.209,318.511 459.98,320.67L454,316.16Z" style="fill:rgb(125,125,125);fill-rule:nonzero;"/>
    </g>
    <g transform="matrix(1,0,0,1,0,-200)">
        <path d="M479.28,328.27C479.188,328.463 478.994,328.588 478.78,328.59L470.44,328.59L466.77,325.81L472.6,312.32L479.28,328.27Z" style="fill:rgb(125,125,125);fill-rule:nonzero;"/>
    </g>
    <g transform="matrix(1,0,0,1,0,-200)">
        <path d="M454,316.16L460,320.67C459.018,321.633 457.973,322.528 456.87,323.35L454,316.16Z" style="fill:rgb(121,121,121);fill-rule:nonzero;"/>
    </g>
    <g transform="matrix(1,0,0,1,0,-200)">
        <path d="M470.44,328.6L466.44,328.6C466.133,328.6 465.881,328.347 465.881,328.04C465.881,327.961 465.897,327.882 465.93,327.81L466.79,325.81L470.44,328.6Z" style="fill:rgb(121,121,121);fill-rule:nonzero;"/>
    </g>
    <g transform="matrix(1,0,0,1,0,-200)">
        <path d="M466.62,310.7C466.289,311.571 465.908,312.422 465.48,313.25L454,316.16L450.21,313.21C450.38,313.04 450.55,312.87 450.71,312.69C451.799,311.509 452.73,310.191 453.48,308.77L466.62,310.7Z" style="fill:rgb(134,134,134);fill-rule:nonzero;"/>
    </g>
    <g transform="matrix(1,0,0,1,0,-200)">
        <path d="M456.81,323.38C452.129,326.867 446.502,328.861 440.67,329.1L454,316.16L456.81,323.38Z" style="fill:rgb(125,125,125);fill-rule:nonzero;"/>
    </g>
    <g transform="matrix(1,0,0,1,0,-200)">
        <path d="M456.34,275.56L451.2,287.22C451.044,287.015 450.877,286.818 450.7,286.63C447.672,283.146 443.255,281.172 438.64,281.24C437.4,281.237 436.162,281.368 434.95,281.63L431.79,270.79C434.027,270.331 436.306,270.106 438.59,270.12C444.936,269.984 451.16,271.892 456.34,275.56Z" style="fill:rgb(145,145,145);fill-rule:nonzero;"/>
    </g>
    <g transform="matrix(1,0,0,1,0,-200)">
        <path d="M454,316.16L440.67,329.1C439.99,329.1 439.29,329.17 438.59,329.17C432.672,329.286 426.851,327.639 421.87,324.44L423.36,316.44L431.28,316.37C435.998,318.681 441.54,318.636 446.22,316.25L454,316.16Z" style="fill:rgb(133,133,133);fill-rule:nonzero;"/>
    </g>
    <g transform="matrix(1,0,0,1,0,-200)">
        <path d="M434.95,281.64C431.702,282.379 428.771,284.13 426.58,286.64C423.423,290.075 421.673,294.575 421.68,299.24L409,294.4L408.71,294.29L409.13,293.66L421.57,275.07C424.659,272.979 428.133,271.524 431.79,270.79L434.95,281.64Z" style="fill:rgb(146,146,146);fill-rule:nonzero;"/>
    </g>
    <g transform="matrix(1,0,0,1,0,-200)">
        <path d="M428.06,314.13C429.037,314.998 430.119,315.74 431.28,316.34L423.36,316.41L428.06,314.13Z" style="fill:rgb(137,137,137);fill-rule:nonzero;"/>
    </g>
    <g transform="matrix(1,0,0,1,0,-200)">
        <path d="M454,316.16L446.24,316.23C447.72,315.442 449.069,314.43 450.24,313.23L454,316.16Z" style="fill:rgb(137,137,137);fill-rule:nonzero;"/>
    </g>
    <g transform="matrix(1,0,0,1,0,-200)">
        <path d="M428.06,314.13L423.37,316.41L409,294.68L408.74,294.3L409,294.4L421.68,299.24C421.68,299.39 421.68,299.53 421.68,299.69C421.569,304.494 423.331,309.158 426.59,312.69C427.049,313.201 427.54,313.681 428.06,314.13Z" style="fill:rgb(143,143,143);fill-rule:nonzero;"/>
    </g>
    <g transform="matrix(1,0,0,1,0,-200)">
        <path d="M421.56,275.07L409.12,293.66C410.174,287.904 413.024,282.627 417.26,278.59C418.583,277.288 420.022,276.11 421.56,275.07Z" style="fill:rgb(153,153,153);fill-rule:nonzero;"/>
    </g>
    <g transform="matrix(1,0,0,1,0,-200)">
        <path d="M386.64,328.6L408.46,321.36L408.46,328C408.46,328.307 408.207,328.56 407.9,328.56L386.64,328.56L386.64,328.6Z" style="fill:rgb(137,137,137);fill-rule:nonzero;"/>
    </g>
    <g transform="matrix(1,0,0,1,0,-200)">
        <path d="M423.36,316.41L421.87,324.41C420.211,323.318 418.664,322.065 417.25,320.67C416.68,320.11 416.13,319.54 415.62,318.95L423.36,316.41Z" style="fill:rgb(137,137,137);fill-rule:nonzero;"/>
    </g>
    <g transform="matrix(1,0,0,1,0,-200)">
        <path d="M408.46,317.78L408.46,321.35L386.64,328.59L374.82,328.59L386.05,317.21L407.9,317.21C408.207,317.21 408.46,317.463 408.46,317.77C408.46,317.773 408.46,317.777 408.46,317.78Z" style="fill:rgb(145,145,145);fill-rule:nonzero;"/>
    </g>
    <g transform="matrix(1,0,0,1,0,-200)">
        <path d="M423.36,316.41L415.63,319C410.952,313.667 408.452,306.762 408.63,299.67C408.624,297.996 408.748,296.325 409,294.67L423.36,316.41Z" style="fill:rgb(145,145,145);fill-rule:nonzero;"/>
    </g>
    <g transform="matrix(1,0,0,1,0,-200)">
        <path d="M386.05,317.22L374.82,328.6L371.9,328.6C371.593,328.6 371.34,328.347 371.34,328.04L384.09,292.04L384.09,316.76C384.09,317.062 384.338,317.31 384.64,317.31C384.643,317.31 384.647,317.31 384.65,317.31L386.05,317.31L386.05,317.22Z" style="fill:rgb(151,151,151);fill-rule:nonzero;"/>
    </g>
    <g transform="matrix(1,0,0,1,0,-200)">
        <path d="M384.09,272L384.09,275.18L383.77,271.49C383.968,271.581 384.094,271.782 384.09,272Z" style="fill:rgb(159,159,159);fill-rule:nonzero;"/>
    </g>
    <g transform="matrix(1,0,0,1,0,-200)">
        <path d="M365.07,280.45C365.258,280.667 365.258,280.993 365.07,281.21L357.89,289.35C357.786,289.474 357.632,289.545 357.47,289.545C357.308,289.545 357.154,289.474 357.05,289.35C354.584,286.283 351.225,284.057 347.44,282.98L344.65,270.25C352.532,270.826 359.875,274.494 365.07,280.45Z" style="fill:rgb(166,166,166);fill-rule:nonzero;"/>
    </g>
    <g transform="matrix(1,0,0,1,0,-200)">
        <path d="M377.09,271.43L371.34,277.27L371.34,272C371.34,271.693 371.593,271.44 371.9,271.44L377.09,271.44L377.09,271.43Z" style="fill:rgb(166,166,166);fill-rule:nonzero;"/>
    </g>
    <g transform="matrix(1,0,0,1,0,-200)">
        <path d="M384.09,275.17L384.09,288.94L371.34,292.47L371.34,277.27L377.09,271.43L383.53,271.43C383.614,271.429 383.696,271.45 383.77,271.49L384.09,275.17Z" style="fill:rgb(160,160,160);fill-rule:nonzero;"/>
    </g>
    <g transform="matrix(1,0,0,1,0,-200)">
        <path d="M364.7,317.9C364.905,318.118 364.905,318.462 364.7,318.68C363.92,319.54 363.12,320.34 362.31,321.08L356.81,310.14C356.99,310.107 357.174,310.167 357.3,310.3L364.7,317.9Z" style="fill:rgb(155,155,155);fill-rule:nonzero;"/>
    </g>
    <g transform="matrix(1,0,0,1,0,-200)">
        <path d="M384.09,288.94L384.09,291.95L371.34,327.99L371.34,292.47L384.09,288.94Z" style="fill:rgb(155,155,155);fill-rule:nonzero;"/>
    </g>
    <g transform="matrix(1,0,0,1,0,-200)">
        <path d="M362.34,321.09C358.609,324.656 354.01,327.187 349,328.43L349.75,315.58C352.349,314.35 354.644,312.561 356.47,310.34C356.555,310.239 356.671,310.169 356.8,310.14L362.34,321.09Z" style="fill:rgb(153,153,153);fill-rule:nonzero;"/>
    </g>
    <g transform="matrix(1,0,0,1,0,-200)">
        <path d="M349.78,315.59L349,328.43C348.14,328.64 347.26,328.81 346.38,328.93L328.87,326.64C328.47,326.467 328.08,326.287 327.7,326.1L335.78,316.33C337.632,317.003 339.589,317.341 341.56,317.33C344.394,317.355 347.199,316.761 349.78,315.59Z" style="fill:rgb(157,157,157);fill-rule:nonzero;"/>
    </g>
    <g transform="matrix(1,0,0,1,0,-200)">
        <path d="M335.75,316.33L327.67,326.1C327.14,325.83 326.62,325.55 326.1,325.25L316.61,316.37C315.435,314.623 314.472,312.744 313.74,310.77L326.13,306.56C326.91,308.798 328.189,310.83 329.87,312.5C331.527,314.191 333.534,315.498 335.75,316.33Z" style="fill:rgb(163,163,163);fill-rule:nonzero;"/>
    </g>
    <g transform="matrix(1,0,0,1,0,-200)">
        <path d="M308.33,277.29L312.4,276.06L310.96,278.59L308.33,277.29Z" style="fill:rgb(170,170,170);fill-rule:nonzero;"/>
    </g>
    <g transform="matrix(1,0,0,1,0,-200)">
        <path d="M347.46,283C345.83,282.558 344.149,282.336 342.46,282.34C337.903,282.245 333.484,283.932 330.15,287.04C329.91,287.26 329.69,287.48 329.48,287.7L317.7,281.92C318.582,280.77 319.544,279.684 320.58,278.67C326.232,273.062 333.93,269.989 341.89,270.16C342.89,270.16 343.77,270.16 344.69,270.27L347.46,283Z" style="fill:rgb(170,170,170);fill-rule:nonzero;"/>
    </g>
    <g transform="matrix(1,0,0,1,0,-200)">
        <path d="M308.33,277.29L310.96,278.59L308.78,282.38L308.33,277.29Z" style="fill:rgb(169,169,169);fill-rule:nonzero;"/>
    </g>
    <g transform="matrix(1,0,0,1,0,-200)">
        <path d="M325,299.68C324.967,302.009 325.336,304.326 326.09,306.53L313.7,310.74C312.427,307.249 311.797,303.556 311.84,299.84C311.683,293.353 313.739,287.003 317.67,281.84L329.45,287.62C326.483,290.707 325,294.727 325,299.68Z" style="fill:rgb(169,169,169);fill-rule:nonzero;"/>
    </g>
    <g transform="matrix(1,0,0,1,0,-200)">
        <path d="M346.38,328.94C344.976,329.142 343.559,329.242 342.14,329.24C337.584,329.313 333.064,328.43 328.87,326.65L346.38,328.94Z" style="fill:rgb(152,152,152);fill-rule:nonzero;"/>
    </g>
    <g transform="matrix(1,0,0,1,0,-200)">
        <path d="M314.57,272.27L312.4,276L308.32,277.25L306.27,271.39L314.08,271.39C314.09,271.389 314.101,271.389 314.111,271.389C314.418,271.389 314.671,271.642 314.671,271.949C314.671,272.064 314.636,272.176 314.57,272.27Z" style="fill:rgb(177,177,177);fill-rule:nonzero;"/>
    </g>
    <g transform="matrix(1,0,0,1,0,-200)">
        <path d="M295.26,321.73L295.26,323.23L292.37,321.31L295.26,321.73Z" style="fill:rgb(158,158,158);fill-rule:nonzero;"/>
    </g>
    <g transform="matrix(1,0,0,1,0,-200)">
        <path d="M295.26,323.23L295.26,328C295.26,328.307 295.007,328.56 294.7,328.56L292,328.56L292.39,321.27L295.26,323.23Z" style="fill:rgb(157,157,157);fill-rule:nonzero;"/>
    </g>
    <g transform="matrix(1,0,0,1,0,-200)">
        <path d="M292.37,321.31L295.26,319.82L295.26,321.73L292.37,321.31Z" style="fill:rgb(164,164,164);fill-rule:nonzero;"/>
    </g>
    <g transform="matrix(1,0,0,1,0,-200)">
        <path d="M326.09,325.25C324.017,324.045 322.103,322.587 320.39,320.91C318.972,319.537 317.701,318.018 316.6,316.38L326.09,325.25Z" style="fill:rgb(164,164,164);fill-rule:nonzero;"/>
    </g>
    <g transform="matrix(1,0,0,1,0,-200)">
        <path d="M308.78,282.38L298.14,300.99L287.74,292.74L288.63,292.07L289.09,291.72L289.7,291.27L289.7,291.26L289.71,291.25L308.33,277.29L308.78,282.38Z" style="fill:rgb(174,174,174);fill-rule:nonzero;"/>
    </g>
    <g transform="matrix(1,0,0,1,0,-200)">
        <path d="M298.14,301L295.34,305.9C295.29,305.985 295.262,306.081 295.26,306.18L295.26,319.84L292.37,321.32L287.74,292.75L298.14,301Z" style="fill:rgb(171,171,171);fill-rule:nonzero;"/>
    </g>
    <g transform="matrix(1,0,0,1,0,-200)">
        <path d="M288.4,291.85C288.457,291.945 288.541,292.021 288.64,292.07L287.75,292.74L288.22,291.53L288.4,291.85Z" style="fill:rgb(180,180,180);fill-rule:nonzero;"/>
    </g>
    <g transform="matrix(1,0,0,1,0,-200)">
        <path d="M308.33,277.29L289.71,291.29L301.07,271.74C301.17,271.57 301.352,271.464 301.55,271.46L306.27,271.46L308.33,277.29Z" style="fill:rgb(180,180,180);fill-rule:nonzero;"/>
    </g>
    <g transform="matrix(1,0,0,1,0,-200)">
        <path d="M292.37,321.31L291.98,328.6L283.15,328.6L292.37,321.31Z" style="fill:rgb(162,162,162);fill-rule:nonzero;"/>
    </g>
    <g transform="matrix(1,0,0,1,0,-200)">
        <path d="M258.38,272L258.38,275.9L250.62,271.44L257.82,271.44C258.127,271.44 258.38,271.693 258.38,272Z" style="fill:rgb(188,188,188);fill-rule:nonzero;"/>
    </g>
    <g transform="matrix(1,0,0,1,0,-200)">
        <path d="M287.92,291L287.74,292.69L268.63,281.69L263.19,272.19C263.141,272.105 263.115,272.008 263.115,271.91C263.115,271.605 263.365,271.353 263.67,271.35L276.21,271.35C276.408,271.354 276.59,271.46 276.69,271.63L287.92,291Z" style="fill:rgb(188,188,188);fill-rule:nonzero;"/>
    </g>
    <g transform="matrix(1,0,0,1,0,-200)">
        <path d="M288.21,291.53L287.74,292.74L287.92,291.05L288.21,291.53Z" style="fill:rgb(184,184,184);fill-rule:nonzero;"/>
    </g>
    <g transform="matrix(1,0,0,1,0,-200)">
        <path d="M292.37,321.31L283.15,328.6L283.06,328.6C282.753,328.6 282.5,328.347 282.5,328.04L282.5,323.7L292.37,321.31Z" style="fill:rgb(169,169,169);fill-rule:nonzero;"/>
    </g>
    <g transform="matrix(1,0,0,1,0,-200)">
        <path d="M282.51,316.14L282.51,306.14C282.508,306.041 282.48,305.945 282.43,305.86L278.43,298.93L287.71,292.7L292.34,321.27L282.51,316.14Z" style="fill:rgb(176,176,176);fill-rule:nonzero;"/>
    </g>
    <g transform="matrix(1,0,0,1,0,-200)">
        <path d="M256.1,328.6L259.27,321.72L259.27,328C259.27,328.307 259.017,328.56 258.71,328.56L256.1,328.56L256.1,328.6Z" style="fill:rgb(174,174,174);fill-rule:nonzero;"/>
    </g>
    <g transform="matrix(1,0,0,1,0,-200)">
        <path d="M292.37,321.31L282.5,323.7L282.5,316.14L292.37,321.31Z" style="fill:rgb(174,174,174);fill-rule:nonzero;"/>
    </g>
    <g transform="matrix(1,0,0,1,0,-200)">
        <path d="M258.38,275.89L258.38,282.24C258.38,282.547 258.127,282.8 257.82,282.8L252.43,282.8L246.23,271.43L250.61,271.43L258.38,275.89Z" style="fill:rgb(185,185,185);fill-rule:nonzero;"/>
    </g>
    <g transform="matrix(1,0,0,1,0,-200)">
        <path d="M287.74,292.74L278.47,298.96L268.63,281.77L287.74,292.74Z" style="fill:rgb(185,185,185);fill-rule:nonzero;"/>
    </g>
    <g transform="matrix(1,0,0,1,0,-200)">
        <path d="M252.44,282.8L246.77,282.8L238.32,271.89L238.99,271.43L246.24,271.43L252.44,282.8Z" style="fill:rgb(191,191,191);fill-rule:nonzero;"/>
    </g>
    <g transform="matrix(1,0,0,1,0,-200)">
        <path d="M259.28,317.87L259.28,321.72L256.11,328.6L251.76,328.6L218.52,312.6L229.93,311.36L229.93,316.79C229.93,317.097 230.183,317.35 230.49,317.35L258.73,317.35C259.019,317.354 259.259,317.582 259.28,317.87Z" style="fill:rgb(181,181,181);fill-rule:nonzero;"/>
    </g>
    <g transform="matrix(1,0,0,1,0,-200)">
        <path d="M246.77,282.8L233.01,282.8L238.32,271.89L246.77,282.8Z" style="fill:rgb(189,189,189);fill-rule:nonzero;"/>
    </g>
    <g transform="matrix(1,0,0,1,0,-200)">
        <path d="M255.52,295.13L255.52,304.88C255.52,305.187 255.267,305.44 254.96,305.44L230.48,305.44C230.175,305.445 229.925,305.695 229.92,306L229.92,311.31L218.51,312.55L229.92,289.13L229.92,294C229.92,294.307 230.173,294.56 230.48,294.56L255,294.56C255.296,294.581 255.526,294.834 255.52,295.13Z" style="fill:rgb(189,189,189);fill-rule:nonzero;"/>
    </g>
    <g transform="matrix(1,0,0,1,0,-200)">
        <path d="M251.75,328.6L223.55,328.6L218.51,312.55L251.75,328.6Z" style="fill:rgb(182,182,182);fill-rule:nonzero;"/>
    </g>
    <g transform="matrix(1,0,0,1,0,-200)">
        <path d="M238.32,271.9L233,282.8L230.47,282.8C230.163,282.8 229.91,283.053 229.91,283.36L229.91,289.14L218.5,312.56L217.16,310.36L217.16,281.77L238.32,271.9Z" style="fill:rgb(195,195,195);fill-rule:nonzero;"/>
    </g>
    <g transform="matrix(1,0,0,1,0,-200)">
        <path d="M210.87,272.36L202.59,281.56L201.06,271.43L210.45,271.43C210.757,271.43 211.01,271.683 211.01,271.99C211.01,272.126 210.96,272.258 210.87,272.36Z" style="fill:rgb(201,201,201);fill-rule:nonzero;"/>
    </g>
    <g transform="matrix(1,0,0,1,0,-200)">
        <path d="M238.32,271.9L217.16,281.77L217.16,272C217.16,271.693 217.413,271.44 217.72,271.44L235.32,271.44L238.32,271.9Z" style="fill:rgb(201,201,201);fill-rule:nonzero;"/>
    </g>
    <g transform="matrix(1,0,0,1,0,-200)">
        <path d="M205.29,319.58C207.37,322.507 209.137,324.983 210.59,327.01L197.66,323.63L205.29,319.58Z" style="fill:rgb(187,187,187);fill-rule:nonzero;"/>
    </g>
    <g transform="matrix(1,0,0,1,0,-200)">
        <path d="M223.55,328.6L217.72,328.6C217.413,328.6 217.16,328.347 217.16,328.04L217.16,313.27L218.5,312.56L223.55,328.6Z" style="fill:rgb(187,187,187);fill-rule:nonzero;"/>
    </g>
    <g transform="matrix(1,0,0,1,0,-200)">
        <path d="M210.63,328.6L199.16,328.6L197.67,323.6L210.59,327L211.08,327.69C211.153,327.788 211.193,327.908 211.193,328.03C211.193,328.34 210.94,328.596 210.63,328.6Z" style="fill:rgb(182,182,182);fill-rule:nonzero;"/>
    </g>
    <g transform="matrix(1,0,0,1,0,-200)">
        <path d="M199.86,312C201.86,314.813 203.67,317.353 205.29,319.62L197.67,323.62L199.67,311.62L199.86,312Z" style="fill:rgb(193,193,193);fill-rule:nonzero;"/>
    </g>
    <g transform="matrix(1,0,0,1,0,-200)">
        <path d="M218.51,312.55L217.17,313.27L217.17,310.36L218.51,312.55Z" style="fill:rgb(193,193,193);fill-rule:nonzero;"/>
    </g>
    <g transform="matrix(1,0,0,1,0,-200)">
        <path d="M199.66,311.67L197.66,323.67L188.54,317.47L180.47,306.62C180.364,306.493 180.206,306.419 180.04,306.419C179.874,306.419 179.716,306.493 179.61,306.62L176.91,309.62L162.41,299.77L194.41,290.77L189.32,296.42C189.162,296.622 189.162,296.908 189.32,297.11C191.247,299.837 194.693,304.69 199.66,311.67Z" style="fill:rgb(198,198,198);fill-rule:nonzero;"/>
    </g>
    <g transform="matrix(1,0,0,1,0,-200)">
        <path d="M199.16,328.6L197.16,328.6C196.982,328.601 196.814,328.515 196.71,328.37L194.38,325.23L197.71,323.62L199.16,328.6Z" style="fill:rgb(184,184,184);fill-rule:nonzero;"/>
    </g>
    <g transform="matrix(1,0,0,1,0,-200)">
        <path d="M168.07,273.44L174.34,271.98L174.34,276.03L168.07,273.44Z" style="fill:rgb(205,205,205);fill-rule:nonzero;"/>
    </g>
    <g transform="matrix(1,0,0,1,0,-200)">
        <path d="M202.6,281.56L198.6,286.04L186.95,281.22L195.8,271.61C195.909,271.494 196.061,271.429 196.22,271.43L201.11,271.43L202.6,281.56Z" style="fill:rgb(205,205,205);fill-rule:nonzero;"/>
    </g>
    <g transform="matrix(1,0,0,1,0,-200)">
        <path d="M198.57,286L194.38,290.66L162.38,299.66L168.04,273.41L174.31,276L174.31,293.43C174.309,293.442 174.309,293.453 174.309,293.465C174.309,293.772 174.562,294.025 174.869,294.025C175.041,294.025 175.204,293.946 175.31,293.81L186.92,281.19L198.57,286Z" style="fill:rgb(204,204,204);fill-rule:nonzero;"/>
    </g>
    <g transform="matrix(1,0,0,1,0,-200)">
        <path d="M162.4,299.68L176.9,309.53L174.48,312.24C174.389,312.342 174.339,312.474 174.34,312.61L174.34,328C174.34,328.307 174.087,328.56 173.78,328.56L173.62,328.56L162.4,299.68Z" style="fill:rgb(194,194,194);fill-rule:nonzero;"/>
    </g>
    <g transform="matrix(1,0,0,1,0,-200)">
        <path d="M197.66,323.63L194.34,325.23L188.54,317.43L197.66,323.63Z" style="fill:rgb(194,194,194);fill-rule:nonzero;"/>
    </g>
    <g transform="matrix(1,0,0,1,0,-200)">
        <path d="M144.39,302.26L156.11,300.59L156.11,314.18L144.39,302.26Z" style="fill:rgb(200,200,200);fill-rule:nonzero;"/>
    </g>
    <g transform="matrix(1,0,0,1,0,-200)">
        <path d="M173.62,328.6L170.3,328.6L161.59,319.74L161.59,299.8L162.4,299.69L173.62,328.6Z" style="fill:rgb(200,200,200);fill-rule:nonzero;"/>
    </g>
    <g transform="matrix(1,0,0,1,0,-200)">
        <path d="M144.39,302.26L156.11,314.18L156.11,327.46C156.11,328.104 155.584,328.635 154.94,328.64L141.31,328.64L144.39,302.26Z" style="fill:rgb(194,194,194);fill-rule:nonzero;"/>
    </g>
    <g transform="matrix(1,0,0,1,0,-200)">
        <path d="M170.3,328.6L162.15,328.6C161.843,328.6 161.59,328.347 161.59,328.04L161.59,319.74L170.3,328.6Z" style="fill:rgb(194,194,194);fill-rule:nonzero;"/>
    </g>
    <g transform="matrix(1,0,0,1,0,-200)">
        <path d="M144.39,302.26L141.31,328.63L124.91,328.63L119.94,316.67L144.39,302.26Z" style="fill:rgb(199,199,199);fill-rule:nonzero;"/>
    </g>
    <g transform="matrix(1,0,0,1,0,-200)">
        <path d="M144.39,302.26L156.11,288L156.11,300.59L144.39,302.26Z" style="fill:rgb(206,206,206);fill-rule:nonzero;"/>
    </g>
    <g transform="matrix(1,0,0,1,0,-200)">
        <path d="M168.07,273.44L162.4,299.69L161.59,299.8L161.59,281.32L168.07,273.44Z" style="fill:rgb(206,206,206);fill-rule:nonzero;"/>
    </g>
    <g transform="matrix(1,0,0,1,0,-200)">
        <path d="M156.11,272.55L156.11,288L144.39,302.27L135.55,271.37L154.92,271.37C155.569,271.37 156.105,271.901 156.11,272.55Z" style="fill:rgb(211,211,211);fill-rule:nonzero;"/>
    </g>
    <g transform="matrix(1,0,0,1,0,-200)">
        <path d="M168.07,273.44L161.59,281.32L161.59,272.06L168.07,273.44Z" style="fill:rgb(211,211,211);fill-rule:nonzero;"/>
    </g>
    <g transform="matrix(1,0,0,1,0,-200)">
        <path d="M124.91,328.63L116.26,328.63L114.02,325.42L119.94,316.67L124.91,328.63Z" style="fill:rgb(198,198,198);fill-rule:nonzero;"/>
    </g>
    <g transform="matrix(1,0,0,1,0,-200)">
        <path d="M144.39,302.26L111.96,288.55L129.02,271.36L135.56,271.36L144.39,302.26Z" style="fill:rgb(213,213,213);fill-rule:nonzero;"/>
    </g>
    <g transform="matrix(1,0,0,1,0,-200)">
        <path d="M112,288.55L120,316.67L144.45,302.26L112,288.55Z" style="fill:rgb(208,208,208);fill-rule:nonzero;"/>
    </g>
    <g transform="matrix(1,0,0,1,0,-200)">
        <path d="M116.26,328.63L113.92,328.63L114.02,325.42L116.26,328.63Z" style="fill:rgb(191,191,191);fill-rule:nonzero;"/>
    </g>
    <g transform="matrix(1,0,0,1,0,-200)">
        <path d="M129.02,271.36L111.96,288.55L108.88,273.18L115.46,271.36L129.02,271.36Z" style="fill:rgb(217,217,217);fill-rule:nonzero;"/>
    </g>
    <g transform="matrix(1,0,0,1,0,-200)">
        <path d="M112,288.55L72.63,297.63L114,325.42L112,288.55Z" style="fill:rgb(212,212,212);fill-rule:nonzero;"/>
    </g>
    <g transform="matrix(1,0,0,1,0,-200)">
        <path d="M112,288.55L114,325.42L119.92,316.67L112,288.55Z" style="fill:rgb(208,208,208);fill-rule:nonzero;"/>
    </g>
    <g transform="matrix(1,0,0,1,0,-200)">
        <path d="M108.88,273.18L72.59,297.63L112,288.55L108.88,273.18Z" style="fill:rgb(217,217,217);fill-rule:nonzero;"/>
    </g>
    <g transform="matrix(1,0,0,1,0,-200)">
        <path d="M72.59,297.63L55.52,328.63L45.8,328.63L38.62,297.11L72.59,297.63Z" style="fill:rgb(216,216,216);fill-rule:nonzero;"/>
    </g>
    <g transform="matrix(1,0,0,1,0,-200)">
        <path d="M55.09,271.36L38.62,297.11L34.42,272.91L35.01,271.91C35.205,271.595 35.55,271.403 35.92,271.4L55.09,271.4L55.09,271.36Z" style="fill:rgb(226,226,226);fill-rule:nonzero;"/>
    </g>
    <g transform="matrix(1,0,0,1,0,-200)">
        <path d="M45.8,328.63L35.93,328.63C35.548,328.634 35.191,328.431 35,328.1L20.83,303.56L38.61,297.11L45.8,328.63Z" style="fill:rgb(216,216,216);fill-rule:nonzero;"/>
    </g>
    <g transform="matrix(1,0,0,1,0,-200)">
        <path d="M38.62,297.11L27.13,285.53L34.41,272.91L38.62,297.11Z" style="fill:rgb(228,228,228);fill-rule:nonzero;"/>
    </g>
    <g transform="matrix(1,0,0,1,0,-200)">
        <path d="M90.57,271.36L79.22,271.36L61.83,271.36L72.59,297.63L108.88,273.18L97.94,271.36L90.57,271.36Z" style="fill:rgb(222,222,222);fill-rule:nonzero;"/>
    </g>
    <g transform="matrix(1,0,0,1,0,-200)">
        <path d="M57.34,271.36L55.09,271.36L38.62,297.11L72.59,297.63L61.83,271.36L57.34,271.36Z" style="fill:rgb(222,222,222);fill-rule:nonzero;"/>
    </g>
    <g transform="matrix(1,0,0,1,0,-200)">
        <path d="M106.12,328.63L113.92,328.63L114.02,325.42L106.12,328.63Z" style="fill:rgb(197,197,197);fill-rule:nonzero;"/>
    </g>
    <g transform="matrix(1,0,0,1,0,-200)">
        <path d="M114.02,325.42L72.59,297.63L80.05,328.63L106.12,328.63L114.02,325.42Z" style="fill:rgb(208,208,208);fill-rule:nonzero;"/>
    </g>
    <g transform="matrix(1,0,0,1,0,-200)">
        <path d="M55.52,328.63L80.05,328.63L72.59,297.63L55.52,328.63Z" style="fill:rgb(209,209,209);fill-rule:nonzero;"/>
    </g>
    <g transform="matrix(1,0,0,1,0,-200)">
        <path d="M238.99,271.43L238.32,271.89L238,271.43L238.99,271.43Z" style="fill:rgb(200,200,200);fill-rule:nonzero;"/>
    </g>
    <g transform="matrix(1,0,0,1,0,-200)">
        <path d="M238.32,271.89L235.33,271.43L238,271.43L238.32,271.89Z" style="fill:rgb(203,203,203);fill-rule:nonzero;"/>
    </g>
    <g transform="matrix(1,0,0,1,0,-200)">
        <path d="M174.34,272L168.07,273.45L169.79,271.45L173.79,271.45C174.092,271.45 174.34,271.698 174.34,272Z" style="fill:rgb(209,209,209);fill-rule:nonzero;"/>
    </g>
    <g transform="matrix(1,0,0,1,0,-200)">
        <path d="M169.79,271.43L168.07,273.44L167.72,271.43L169.79,271.43Z" style="fill:rgb(215,215,215);fill-rule:nonzero;"/>
    </g>
    <g transform="matrix(1,0,0,1,0,-200)">
        <path d="M168.07,273.44L161.59,272.06L161.59,272C161.59,271.693 161.843,271.44 162.15,271.44L167.72,271.44L168.07,273.44Z" style="fill:rgb(217,217,217);fill-rule:nonzero;"/>
    </g>
    <g transform="matrix(1,0,0,1,0,-200)">
        <path d="M108.99,271.36L108.88,273.18L115.46,271.36L112.45,271.36L108.99,271.36Z" style="fill:rgb(221,221,221);fill-rule:nonzero;"/>
    </g>
    <g transform="matrix(1,0,0,1,0,-200)">
        <path d="M97.94,271.36L108.88,273.18L107.87,271.36L97.94,271.36Z" style="fill:rgb(227,227,227);fill-rule:nonzero;"/>
    </g>
    <g transform="matrix(1,0,0,1,0,-200)">
        <path d="M107.87,271.36L108.88,273.18L108.99,271.36L107.87,271.36Z" style="fill:rgb(226,226,226);fill-rule:nonzero;"/>
    </g>
    <g transform="matrix(1,0,0,1,0,-200)">
        <path d="M79.11,271.86L63.11,299.58C63.041,299.709 63.003,299.853 63,300L51.83,300L73.83,261.95C73.967,262.025 74.081,262.135 74.16,262.27L79.16,270.92C79.301,271.222 79.282,271.575 79.11,271.86Z" style="fill:rgb(0,184,227);fill-rule:nonzero;"/>
    </g>
    <g transform="matrix(1,0,0,1,0,-200)">
        <path d="M79.09,329.16L74.09,337.77C74.004,337.902 73.887,338.012 73.75,338.09L51.82,300L63,300C62.998,300.151 63.036,300.299 63.11,300.43L79.11,328.13C79.308,328.446 79.301,328.852 79.09,329.16Z" style="fill:rgb(51,198,233);fill-rule:nonzero;"/>
    </g>
    <g transform="matrix(1,0,0,1,0,-200)">
        <path d="M73.78,262L51.83,300L46.32,309.54L41,300.46C40.926,300.329 40.888,300.181 40.89,300.03C40.891,299.872 40.932,299.717 41.01,299.58L46.34,290.35L62.52,262.35C62.686,262.054 63,261.87 63.34,261.87L73.27,261.87C73.449,261.867 73.625,261.912 73.78,262Z" style="fill:rgb(0,138,170);fill-rule:nonzero;"/>
    </g>
    <g transform="matrix(1,0,0,1,0,-200)">
        <path d="M73.78,338.09C73.636,338.171 73.475,338.216 73.31,338.22L63.38,338.22C63.04,338.22 62.726,338.036 62.56,337.74L47.77,312.12L46.31,309.58L51.82,300L73.78,338.09Z" style="fill:rgb(0,184,227);fill-rule:nonzero;"/>
    </g>
    <g transform="matrix(1,0,0,1,0,-200)">
        <path d="M118,300L96,338.09C95.867,338.01 95.754,337.901 95.67,337.77L90.67,329.14C90.531,328.86 90.531,328.53 90.67,328.25L106.67,300.53C106.756,300.385 106.801,300.219 106.8,300.05L118,300.05L118,300Z" style="fill:rgb(0,138,170);fill-rule:nonzero;"/>
    </g>
    <g transform="matrix(1,0,0,1,0,-200)">
        <path d="M128.83,300C128.831,300.169 128.786,300.335 128.7,300.48L107.18,337.74C107.007,338.015 106.704,338.181 106.38,338.18L96.46,338.18C96.292,338.178 96.126,338.133 95.98,338.05L118,300L123.51,290.47L128.74,299.53C128.811,299.676 128.842,299.838 128.83,300Z" style="fill:rgb(0,184,227);fill-rule:nonzero;"/>
    </g>
    <g transform="matrix(1,0,0,1,0,-200)">
        <path d="M118,300L106.78,300C106.78,299.835 106.735,299.672 106.65,299.53L90.65,271.84C90.458,271.535 90.458,271.145 90.65,270.84L95.65,262.22C95.75,262.123 95.869,262.048 96,262L118,300Z" style="fill:rgb(0,184,227);fill-rule:nonzero;"/>
    </g>
    <g transform="matrix(1,0,0,1,0,-200)">
        <path d="M123.46,290.48L118,300L96,262C96.146,261.917 96.312,261.872 96.48,261.87L106.4,261.87C106.724,261.869 107.027,262.035 107.2,262.31L123.46,290.48Z" style="fill:rgb(51,198,233);fill-rule:nonzero;"/>
    </g>
    <defs>
        <linearGradient id="_Linear2" x1="0" y1="0" x2="1" y2="0" gradientUnits="userSpaceOnUse" gradientTransform="matrix(566.81,0,0,566.81,17.66,300.84)"><stop offset="0" style="stop-color:rgb(230,230,230);stop-opacity:1"/><stop offset="1" style="stop-color:rgb(89,89,89);stop-opacity:1"/></linearGradient>
    </defs>
</svg>
